# xmcd CD database file
#
# Track frame offsets:
#	150
#	7848
#	27201
#	48737
#	73935
#	94522
#	114228
#	133099
#	151928
#	178869
#	197940
#	218179
#	237714
#	254843
#	273178
#	293246
#
# Disc length: 4164 seconds
#
# Revision: 5
# Processed by: cddbd v1.5.2PL0 Copyright (c) Steve Scherf et al.
# Submitted via: CDex 1.70beta3
#
DISCID=f1104210
DTITLE=Dream comes true - The soul (disk1)
DYEAR=2001
DGENRE=Other
TTITLE0=A theme of WONDERLAND
TTITLE1=ureshii! tanoshii! daisuki!
TTITLE2=anonatunohanabi
TTITLE3=kessennhakinnyoubi
TTITLE4=kusuriyubinokeshhinn
TTITLE5=egaonoyukue
TTITLE6=ahaha
TTITLE7=7gatu7ka hare
TTITLE8=LAT43N
TTITLE9=nantekoishitanndaro
TTITLE10=Ring!Ring!Ring!
TTITLE11=ureshihazukashiasagaeri
TTITLE12=anatanisarada
TTITLE13=haretaraiine
TTITLE14=yorokobinouta
TTITLE15=asagamatakuru
EXTD=YEAR: 2001
EXTT0=
EXTT1=
EXTT2=
EXTT3=
EXTT4=
EXTT5=
EXTT6=
EXTT7=
EXTT8=
EXTT9=
EXTT10=
EXTT11=
EXTT12=
EXTT13=
EXTT14=
EXTT15=
PLAYORDER=
